<svg xmlns="http://www.w3.org/2000/svg" xmlns:xlink="http://www.w3.org/1999/xlink" viewBox="0 0 1185 312.04"><defs><style>.cls-1{fill:#c60c31;}.cls-2{fill:#111;}.cls-3{fill:url(#linear-gradient);}</style><linearGradient id="linear-gradient" x1="319.5" y1="1751" x2="319.5" y2="1655" gradientTransform="matrix(1, 0, 0, -1, 0, 1888)" gradientUnits="userSpaceOnUse"><stop offset="0.2" stop-color="#e08b09"/><stop offset="1" stop-color="#c60c31"/></linearGradient></defs><title>Ресурс 1</title><g id="Слой_2" data-name="Слой 2"><g id="Layer_1" data-name="Layer 1"><path class="cls-1" d="M404.54,223.22,367,158.11l-22.38-38.77a11.91,11.91,0,0,1-1.61-6V78h0a12,12,0,0,0,0-24H295a12,12,0,0,0,0,24v35.34a12,12,0,0,1-1.61,6L271,158.11l-37.59,65.11a12,12,0,0,0,10.4,18H394.15A12,12,0,0,0,404.54,223.22Z"/><path class="cls-2" d="M1117.09,57.63q0,20.37-16.91,20.37h-17.07v30.48h30.66v84.79q-.16,50.85,47.38,50.85A76.68,76.68,0,0,0,1185,240.8V210.33l-2.49.65a34.51,34.51,0,0,1-6.53,1.84,42,42,0,0,1-8,.82,19.77,19.77,0,0,1-14.58-5.8q-5.8-5.81-5.81-14.91V108.48h34V78h-34V23.69h-30.46Zm-53.57,39.1-2.16-2.49a73.05,73.05,0,0,0-6.37-5.39,83.14,83.14,0,0,0-10.18-6.63,60.34,60.34,0,0,0-15-5.46,80.16,80.16,0,0,0-19-2.25q-24.68,0-41.16,14.41T953.18,122q0,13.59,6.14,23.27a37.64,37.64,0,0,0,15.48,14.24,183.87,183.87,0,0,0,20.05,8.29q10.68,3.74,20,6.29a44.49,44.49,0,0,1,15.41,7.29c4.08,3.15,6.14,7.1,6.14,11.84a18.19,18.19,0,0,1-6.79,14.82q-6.79,5.55-20.38,5.55a47,47,0,0,1-21.94-5.55q-10.68-5.55-13.92-9a60.43,60.43,0,0,1-4.89-5.8l-22,22.06,2.49,3.14a48.43,48.43,0,0,0,7.53,7.21A103.5,103.5,0,0,0,968.62,234a72.25,72.25,0,0,0,17.81,7.12,85.56,85.56,0,0,0,22.78,3q27.16,0,44.15-14.91t17-35.94q0-13.57-6.13-23.18a38.62,38.62,0,0,0-15.49-14.26,176.18,176.18,0,0,0-20-8.36q-10.68-3.74-20-6.22a42.31,42.31,0,0,1-15.4-7.29c-4.08-3.19-6.14-7.19-6.14-11.92q0-6.8,6.38-11.83t17.32-5.07A38,38,0,0,1,1027,108.9q8,3.72,10.61,6.13c1.72,1.6,3,2.83,3.89,3.73ZM836,257.72q-9.43,23.68-28.83,23.84a49.36,49.36,0,0,1-17.05-3.47v30.64l2.31.66a47.48,47.48,0,0,0,8.78,1.81A91.5,91.5,0,0,0,814,312q18.57,0,30.9-12.1t24.94-42.24L942.88,78H907.27L859.73,196.75,812.19,78H776.57L842.84,240.8ZM753,3.32H719.23V240.84H753ZM433.64,57.63q0,20.37-16.9,20.37H399.68v30.48h30.64v84.79q-.15,50.85,47.39,50.85a76.66,76.66,0,0,0,23.84-3.32V210.33l-2.48.65a34.56,34.56,0,0,1-6.55,1.84,42,42,0,0,1-8,.82,19.75,19.75,0,0,1-14.58-5.8q-5.82-5.81-5.81-14.91V108.48h34V78h-34V23.69H433.6V57.63ZM125.58,0Q72.24,0,36.12,35.45T0,122.08q0,51.18,36.12,86.62t89.46,35.45a121.48,121.48,0,0,0,34.87-5q17-5.06,27.5-11.35a140.73,140.73,0,0,0,19.89-14.41c6.24-5.41,10.26-9.19,12.1-11.35a63.71,63.71,0,0,0,4.06-5.22l-23.85-23.84-2.64,4.15a78.9,78.9,0,0,1-9.53,9.19,149.5,149.5,0,0,1-14.74,10.85,83.92,83.92,0,0,1-21.05,9.36,90.21,90.21,0,0,1-26.59,3.89q-37.12,0-62.71-25.68t-25.6-62.6q0-36.93,25.68-62.53T125.6,34A88.6,88.6,0,0,1,152,37.87a98.22,98.22,0,0,1,20.29,8.45,83.36,83.36,0,0,1,14.58,10.85,101.67,101.67,0,0,1,8.7,8.69c1.28,1.61,2.23,2.85,2.9,3.73l23.69-23.84-3.64-4.65a80.65,80.65,0,0,0-11.93-11.42,185.84,185.84,0,0,0-19-13.41c-7.26-4.57-16.38-8.41-27.44-11.55A125.57,125.57,0,0,0,125.58,0Z"/><path class="cls-2" d="M603.53,213.63c-13,0-24.31-5.37-34.2-15.83a54.72,54.72,0,0,1-15-38.44,54.75,54.75,0,0,1,15-38.45c9.89-10.74,21.48-15.83,34.2-15.83,13,0,24.31,5.38,34.2,15.83s15,23.47,15,38.45a54.73,54.73,0,0,1-15,38.44C627.84,208.54,616.53,213.63,603.53,213.63ZM600.14,74.55c-21.48,0-40.14,8.2-56,24.88s-23.75,36.47-23.75,59.93,7.92,43.53,23.75,59.93,34.49,24.87,56,24.87a69.06,69.06,0,0,0,28-5.94c9-3.95,15.27-7.34,18.1-9.89a73.48,73.48,0,0,0,6.5-6.22v18.66h33.92V78H652.72V96.6l-2.26-2.54a63.84,63.84,0,0,0-6.79-5.37,77.33,77.33,0,0,0-10.74-6.5,59.27,59.27,0,0,0-14.7-5.37A77,77,0,0,0,600.14,74.55Z"/><path class="cls-3" d="M325.43,233c17.79-3.66,30.57-17.83,30.57-35.66,0-16.45-8.21-32-24.18-42.05,3.65,10.51-1.37,20.11-5.93,23.31,0-13.26-4.56-33.37-20.08-41.6,2.28,28.8-22.81,38.86-22.81,64,0,17.37,14.14,29.26,30.11,32Z"/></g></g></svg>